<svg width="28" height="14" viewBox="0 0 28 14" fill="none" xmlns="http://www.w3.org/2000/svg">
<g clip-path="url(#clip0_123_12)">
<path d="M3.97058 6L7.77819 2.19238C8.16872 1.80186 8.16872 1.16869 7.77819 0.778171C7.38767 0.387646 6.7545 0.387646 6.36398 0.77817L0.707126 6.43502C0.316601 6.82555 0.316601 7.45871 0.707126 7.84924L6.36398 13.5061C6.7545 13.8966 7.38767 13.8966 7.77819 13.5061C8.16872 13.1156 8.16872 12.4824 7.77819 12.0919L3.68631 8L26.1389 8C26.693 8 27.1422 7.55613 27.1422 7C27.1422 6.44771 26.6909 6 26.1389 6L3.97058 6Z" fill="#2A2630"/>
</g>
<defs>
<clipPath id="clip0_123_12">
<rect width="28" height="14" fill="white"/>
</clipPath>
</defs>
</svg>
