<svg width="28" height="14" viewBox="0 0 28 14" fill="none" xmlns="http://www.w3.org/2000/svg">
<g clip-path="url(#clip0_123_16)">
<path d="M24.0294 5.99999L20.2218 2.19238C19.8313 1.80186 19.8313 1.16869 20.2218 0.77817C20.6123 0.387645 21.2455 0.387645 21.636 0.77817L27.2929 6.43502C27.6834 6.82555 27.6834 7.45871 27.2929 7.84924L21.636 13.5061C21.2455 13.8966 20.6123 13.8966 20.2218 13.5061C19.8313 13.1156 19.8313 12.4824 20.2218 12.0919L24.3137 7.99999L1.86115 8C1.30704 8 0.857846 7.55613 0.857846 6.99999C0.857846 6.44771 1.30912 6 1.86115 6L24.0294 5.99999Z" fill="#2A2630"/>
</g>
<defs>
<clipPath id="clip0_123_16">
<rect width="28" height="14" fill="white" transform="matrix(-1 0 0 1 28 0)"/>
</clipPath>
</defs>
</svg>
