<svg width="1130" height="600" viewBox="0 0 1130 600" fill="none" xmlns="http://www.w3.org/2000/svg">
<g opacity="0.5">
<path opacity="0.5" d="M972.769 74.2098C975.677 67.2029 979.698 50.2082 985.903 46.4727C989.899 44.0664 993.387 58.2662 994.355 60.9012C998.102 71.0974 1000.41 81.5646 1002.43 92.0776C1006.08 111.039 1002.98 129.439 996.394 147.888C993.003 157.382 988.58 167.228 980.304 174.621C976.493 178.025 971.086 179.732 967.224 182.804C962.725 186.379 964.965 183.822 964.161 188.982C963.043 196.145 964.817 204.621 965.628 211.787C969.349 244.684 1009.19 413.774 1023.09 444.823C1024.33 447.575 1019.84 449.374 1018.42 445.994C1010.89 428.074 978.227 299.327 969.469 256.765C960.712 214.202 953.677 176.432 954.301 160.835C955.059 141.913 960.031 118.188 964.578 99.6258C966.69 91.0031 969.313 82.5375 972.769 74.2098Z" fill="#69A1AC"/>
<path opacity="0.5" d="M1079.04 267.859C1089.14 256.99 1108.08 268.436 1099.2 279.017C1094.28 284.867 1087.06 284.925 1082.05 282.224C1080.46 285.287 1079.06 288.427 1077.62 291.143C1073.22 299.416 1069.24 307.762 1065.59 316.2C1058.02 333.731 1052.53 351.653 1046.46 369.411C1040.46 386.937 1034.58 404.518 1029.76 422.172C1025.67 437.13 1019.53 455.045 1021.49 469.907C1015.57 438.808 1022.45 405.918 1033.37 374.655C1044.19 343.646 1057.12 309.518 1080.77 281.446C1076.31 278.361 1074.34 272.911 1079.04 267.859Z" fill="#C1DEE2"/>
<path opacity="0.5" d="M810.893 252.527C818.458 251.984 834.808 262.67 842.483 266.397C851.603 270.825 860.212 275.812 868.561 281.195C886.536 292.783 903.467 305.624 918.898 319.545C944.053 342.238 966.268 366.395 985.533 393.046C997.325 409.36 1007.33 426.797 1015.79 444.466C1017.38 447.798 1030.83 473.215 1024.84 475.414C1019.46 477.393 1014.04 456.255 1012.8 453.499C998.782 422.424 978.959 393.662 955.891 366.722C950.867 360.854 945.532 353.469 939.071 348.651C934.417 345.18 938.098 345.9 931.932 345.636C926.637 345.409 921.262 347.056 915.744 346.548C903.76 345.448 892.727 340.395 882.738 335.047C863.327 324.656 846.559 312.403 834.387 296.057C827.635 286.995 821.136 277.81 815.922 268.051C814.574 265.529 806.021 252.877 810.893 252.527Z" fill="#69A1AC"/>
<path opacity="0.5" d="M761.855 21.5378C802.253 54.024 839.164 91.4899 868.408 131.378C886.127 155.547 901.475 181.023 916.715 206.314C940.314 245.473 963.408 284.751 980.438 326.273C997.569 368.035 1019.41 415.707 1016.8 460.489C1010.85 417.074 987.714 374.87 971.94 333.52C964.409 313.782 955.671 294.54 946.3 275.366C937.209 256.764 926.581 238.63 916.25 220.489C911.219 211.653 906.102 202.854 900.949 194.068C899.413 191.448 896.34 183.313 893.585 181.93C890.811 180.536 879.732 182.341 875.858 181.758C868.055 180.583 860.252 178.131 853.11 175.277C839.419 169.807 826.292 161.523 815.219 152.912C789.595 132.988 772.545 105.28 763.29 77.3356C761.493 71.9099 751.87 11.1624 747.394 11.3626C747.561 11.0565 747.713 10.7444 747.847 10.4264C752.555 14.0969 757.213 17.8122 761.855 21.5378Z" fill="#89C5CC"/>
<path opacity="0.5" d="M1101.46 92.4523C1101.7 91.8546 1103.22 87.734 1101.93 88.2817C1104.55 87.1662 1099.43 93.0233 1105.44 88.744C1103.05 92.1103 1106.1 95.0123 1107.34 98.4762C1109.36 104.101 1110.15 109.967 1110.78 115.792C1111.77 125 1111.68 134.202 1110.12 143.359C1106.7 163.317 1096.42 184.197 1081.05 199.829C1073.47 207.547 1064.83 211.619 1054.9 216.707C1048.63 219.922 1049.1 222.986 1047.38 229.354C1043.79 242.618 1040.33 255.808 1037.77 269.246C1034.71 285.291 1031.89 301.298 1029.59 317.434C1021.83 371.786 1019.23 426.801 1026.69 481.311C1015.87 450.72 1013.51 417.118 1014.19 385.337C1014.69 362.182 1017.81 339.23 1021.68 316.324C1022.62 310.774 1024.43 303.492 1023.68 297.792C1023.15 293.799 1019.5 290.71 1017.02 286.962C1007.36 272.367 1001.63 254.801 999.976 238.206C998.149 219.908 1007.35 209.017 1026.77 201.734C1033.87 199.07 1043.4 197.153 1049.28 192.904C1055.7 188.278 1055.51 178.145 1057.64 171.104C1063.35 152.19 1071.42 133.433 1082.13 116.091C1085.1 111.289 1088.48 106.701 1092.24 102.305C1094.61 99.5292 1100.23 95.4675 1101.46 92.4523Z" fill="#89C5CC"/>
<path opacity="0.5" d="M981.084 456.363L1052.98 439.215C1056.21 438.444 1059.58 439.999 1060.51 442.688C1060.59 442.926 1060.65 443.168 1060.69 443.413L1065.94 476.079C1067.54 486.037 1060.12 495.466 1048.51 498.235L1022.47 504.445C1010.86 507.214 998.565 502.487 993.578 493.337L977.217 463.322C975.829 460.775 977.186 457.773 980.248 456.618C980.519 456.516 980.798 456.431 981.084 456.363Z" fill="#C1DEE2"/>
</g>
<path d="M999.567 296.658C977.746 274.484 924.82 281.066 917.825 308.058C916.892 311.658 912.088 324.836 912.167 328.321C912.468 341.7 893.435 348.563 877.911 352.072C874.597 352.821 871.073 353.689 868.871 355.882C862.92 361.808 871.22 370.773 869.291 378.327C865.749 392.198 827.108 382.222 829.334 406.198C831.645 431.098 839.958 429.556 812.111 454.274C804.336 461.176 817.797 478.458 843.614 460.435C848.622 456.94 871.13 466.665 872.026 461.278C873.731 451.032 876.676 451.339 886.233 444.72C895.79 438.103 920.508 430.094 933.337 423.393C982.852 397.529 954.983 395.051 960.221 395.318C996.198 397.157 1052.05 349.991 999.567 296.658Z" fill="#3D4E61"/>
<path d="M884.857 439.763C885.878 418.98 881.335 411.383 903.009 402.25L930.389 397.797C938.385 397.797 949.746 389.352 950.596 382.739L954.476 352.539H973.251L977.131 382.739C977.98 389.352 987.67 396.355 995.666 396.355L1024.72 402.25C1048.08 413.948 1052.15 427.598 1062.02 450.784L1075.27 475.012L1035.42 460.4L884.857 439.763Z" fill="#F27979"/>
<path d="M907.877 401.458C907.877 401.458 874.972 400.681 830.074 489.379L872.763 498.523C872.763 498.523 936.689 436.198 907.877 401.458Z" fill="#F27979"/>
<path d="M1022.77 401.458C1022.77 401.458 1060.6 401.459 1102.84 498.524L1061.27 505.217C1061.27 505.217 991.574 441.189 1022.77 401.458Z" fill="#F27979"/>
<path d="M937.257 352.338C944.511 352.338 950.391 348.687 950.391 344.183C950.391 339.679 944.511 336.027 937.257 336.027C930.004 336.027 924.123 339.679 924.123 344.183C924.123 348.687 930.004 352.338 937.257 352.338Z" fill="#F27979"/>
<path d="M991.237 352.338C998.491 352.338 1004.37 348.687 1004.37 344.183C1004.37 339.679 998.491 336.027 991.237 336.027C983.983 336.027 978.103 339.679 978.103 344.183C978.103 348.687 983.983 352.338 991.237 352.338Z" fill="#F27979"/>
<path d="M964.795 371.799C983.933 371.799 996.303 358.774 996.303 342.855V316.149C996.303 300.23 983.934 293.588 964.795 293.588C964.795 293.588 931.745 290.254 933.288 316.149V342.855C933.288 358.774 945.657 371.799 964.795 371.799Z" fill="#F27979"/>
<path d="M970.178 287.655C976.524 291.439 972.719 303.088 960.014 317.826C947.309 332.564 925.117 347.056 918.771 343.271C912.425 339.486 918.93 318.857 931.635 304.119C944.34 289.381 963.832 283.87 970.178 287.655Z" fill="#3D4E61"/>
<path d="M1006.38 341.997C992.487 335 992.487 335 982.385 323.067C972.282 311.134 963.806 291.398 968.446 288.68C973.088 285.961 985.039 293.432 995.141 305.365C1005.24 317.298 1011.24 344.443 1006.38 341.997Z" fill="#3D4E61"/>
<path d="M880.809 573.782C888.539 516.303 909.526 478.513 893.657 423.056C889.242 408.998 880.486 405.972 920.244 396.63C922.526 396.094 924.988 395.841 927.36 395.841C935.659 405.881 948.903 413.373 963.824 413.373C978.745 413.373 991.039 405.881 999.339 395.841C1001.71 395.841 1005.09 396.186 1007.4 396.63C1052.43 405.293 1038.41 409.072 1033.99 423.129C1018.12 478.586 1036.95 517.76 1046.84 573.877C1049.5 588.952 1041.57 600 1017.09 600C981.578 600 946.069 600 910.56 600C886.082 600 878.773 588.923 880.809 573.782Z" fill="#FCFEFF"/>
<path d="M944.751 381.209C944.751 381.209 944.467 390.311 924.985 395.929C924.985 395.929 937.084 412.402 963.824 413.418C990.563 414.433 1001.24 395.951 1001.24 395.951C1001.24 395.951 983.161 394.636 980.951 381.208H944.751V381.209Z" fill="#FCFEFF"/>
<path d="M956.038 528.982C956.331 534.815 967.958 534.318 982.305 533.82C996.653 533.323 1013.91 537.651 1013.61 531.817C1013.32 525.984 995.793 516.137 981.444 516.634C967.096 517.132 955.746 523.149 956.038 528.982Z" fill="#F27979"/>
<path d="M874.292 422.323C874.292 422.323 792.938 522.106 833.037 531.573C878.932 542.409 931.235 529.193 958.168 533.495C977.264 536.546 960.886 522.461 960.886 522.461L864.542 511.13C864.542 511.13 883.849 488.324 890.508 464.229C897.168 440.134 874.292 422.323 874.292 422.323Z" fill="#F27979"/>
<path d="M973.906 528.982C973.613 534.815 961.986 534.318 947.638 533.82C933.29 533.323 916.037 537.651 916.33 531.817C916.621 525.984 934.151 516.137 948.499 516.634C962.847 517.131 974.198 523.149 973.906 528.982Z" fill="#F27979"/>
<path d="M1050.08 417.948C1050.08 417.948 1137 522.106 1096.91 531.573C1051.01 542.409 998.708 529.193 971.776 533.495C952.679 536.546 969.057 522.461 969.057 522.461L1065.4 511.129C1065.4 511.129 1039.34 480.766 1032.69 456.671C1026.03 432.576 1050.08 417.948 1050.08 417.948Z" fill="#F27979"/>
<path d="M928.081 348.515C926.878 348.621 925.675 348.726 924.472 348.831C921.799 349.065 918.883 347.65 918.2 345.624C916.681 341.137 915.998 336.505 916.172 331.87C916.248 329.777 918.679 327.894 921.351 327.66C922.554 327.555 923.757 327.45 924.96 327.344C925.968 327.256 926.693 327.823 926.615 328.61C925.99 334.816 926.909 341.056 929.325 346.996C929.631 347.75 929.09 348.427 928.081 348.515Z" fill="#E6E4E1"/>
<path d="M998.401 348.515C999.604 348.621 1000.81 348.726 1002.01 348.831C1004.68 349.065 1007.6 347.65 1008.28 345.624C1009.8 341.137 1010.48 336.505 1010.31 331.87C1010.23 329.777 1007.8 327.894 1005.13 327.66C1003.93 327.555 1002.72 327.45 1001.52 327.344C1000.51 327.256 999.788 327.823 999.867 328.61C1000.49 334.816 999.572 341.056 997.157 346.996C996.85 347.75 997.392 348.427 998.401 348.515Z" fill="#E6E4E1"/>
<path d="M947.847 360.375C948.138 360.752 948.381 361.254 948.25 361.682C947.956 362.633 947.027 363.469 946.192 363.461C944.342 363.446 942.558 363.124 940.894 362.506C940.143 362.228 939.802 361.162 940.096 360.211C940.228 359.783 941.347 358.911 942.201 358.886C944.66 358.813 947.011 359.287 947.847 360.375Z" fill="#E6E4E1"/>
<path d="M946.382 362.598C934.427 362.883 924.346 352.84 923.91 340.21C923.89 339.622 924.491 339.131 925.254 339.113C926.016 339.095 926.651 339.556 926.671 340.144C927.067 351.6 935.877 360.719 946.309 360.469C947.072 360.451 947.706 360.912 947.727 361.5C947.746 362.089 947.145 362.579 946.382 362.598Z" fill="#E6E4E1"/>
<path d="M924.509 332.402L921.95 332.299C921.973 331.892 924.744 291.897 963.88 291.897C964.245 291.897 964.614 291.9 964.988 291.908C990.197 292.386 1003.65 305.156 1004.98 329.864L1002.42 329.96C1001.15 306.243 988.881 294.493 964.928 294.039C964.574 294.032 964.219 294.029 963.87 294.029C927.184 294.029 924.602 330.821 924.509 332.402Z" fill="#E6E4E1"/>
<path d="M605.747 374.175H551.551V388.354H605.747V374.175Z" fill="#DFE6EC"/>
<path d="M609.865 384.797C601.849 384.797 595.423 375.986 594.571 369.356L590.682 339.081H568.859L564.969 369.356C564.118 375.986 557.691 384.797 549.675 384.797H609.865Z" fill="#F27979"/>
<path d="M680.444 391.845C680.215 391.872 680.011 391.924 679.787 391.954C661.657 375.443 482.824 376.566 478.848 396.534C473.928 404.429 438.006 463.497 442.395 498.252C448.215 544.337 472.326 531.181 487.695 492.202C488.127 491.106 488.556 489.994 488.982 488.876C496.128 525.403 502.83 557.158 524.217 558.491C574.901 561.65 610.741 557.759 639.911 558.491C656.387 558.905 666.498 529.909 674.601 494.051C690.899 529.098 722.175 543.964 722.012 498.252C721.88 460.749 680.444 391.845 680.444 391.845Z" fill="#DFE6EC"/>
<path d="M604.503 384.539C604.503 386.716 601.378 397.964 593.266 401.331C584.861 404.819 575 404.819 566.595 401.331C558.484 397.964 555.358 386.716 555.358 384.539C555.358 380.504 563.221 377.233 579.931 377.233C596.64 377.233 604.503 380.504 604.503 384.539Z" fill="#F27979"/>
<path d="M584.67 526.71H569.755L570.689 400.328L585.594 401.812L584.67 526.71Z" fill="white"/>
<path d="M575.269 415.688L569.686 514.455L577.958 529.076V415.688H575.269Z" fill="#2C3640"/>
<path d="M580.955 415.688L586.646 514.455L577.958 529.076V415.688H580.955Z" fill="#37434F"/>
<path d="M578.45 405.223H577.926H568.341L575.163 416.56H577.849H578.374H581.044L587.638 405.223H578.45Z" fill="#37434F"/>
<path d="M577.614 400.638L547.047 418.705L551.551 374.175L577.614 400.638Z" fill="white"/>
<path d="M577.614 400.638L608.816 418.705L605.747 374.175L577.614 400.638Z" fill="white"/>
<path d="M710.889 497.05C727.271 502.223 746.857 550.485 585.501 535.573L587.779 524.845C587.779 524.845 665.437 509.487 670.296 507.21C685.691 499.995 698.132 493.021 710.889 497.05Z" fill="#F27979"/>
<path d="M593.158 532.127C592.878 537.725 581.72 537.248 567.953 536.771C554.184 536.293 537.628 540.446 537.909 534.848C538.189 529.251 555.01 519.801 568.779 520.278C582.547 520.756 593.439 526.53 593.158 532.127Z" fill="#F27979"/>
<path d="M454.153 500.517C438.36 506.833 423.794 556.309 583.033 530.004L579.663 519.477C579.663 519.477 500.714 509.684 495.639 507.76C479.56 501.663 466.449 495.597 454.153 500.517Z" fill="#F27979"/>
<path d="M575.05 527.114C575.903 532.671 586.971 531.404 600.64 529.952C614.309 528.5 631.23 531.463 630.377 525.905C629.523 520.349 611.796 512.126 598.126 513.578C584.457 515.031 574.196 521.557 575.05 527.114Z" fill="#F27979"/>
<path d="M550.627 340.756C558.525 340.756 564.927 336.78 564.927 331.876C564.927 326.972 558.525 322.997 550.627 322.997C542.729 322.997 536.327 326.972 536.327 331.876C536.327 336.78 542.729 340.756 550.627 340.756Z" fill="#F27979"/>
<path d="M611.144 340.756C619.042 340.756 625.444 336.78 625.444 331.876C625.444 326.972 619.042 322.997 611.144 322.997C603.246 322.997 596.844 326.972 596.844 331.876C596.844 336.78 603.246 340.756 611.144 340.756Z" fill="#F27979"/>
<path d="M580.885 364.332C599.832 364.332 615.19 351.556 615.19 335.797V297.786C615.19 283.671 601.325 278.793 584.466 277.193C566.621 275.5 546.581 286.338 546.581 303.742V335.797C546.581 351.556 561.939 364.332 580.885 364.332Z" fill="#F27979"/>
<path d="M622.235 298.751C623.607 306.865 618.715 317.899 616.141 322.409C615.357 323.783 615.817 326.119 614.004 325.919C612.532 325.757 612.235 324.112 612.298 322.877C612.689 315.277 612.249 307.647 610.984 300.112C610.729 298.592 610.442 297.028 610.883 295.536C612.805 289.033 621.794 296.144 622.235 298.751Z" fill="#3D4E61"/>
<path d="M539.314 299.094C538.341 307.045 539.143 318.938 545.354 322.409C546.872 323.257 545.678 326.119 547.491 325.919C548.963 325.757 549.26 324.112 549.197 322.877C548.806 315.277 549.247 307.647 550.511 300.113C550.767 298.592 551.053 297.028 550.612 295.537C548.689 289.033 540.414 290.1 539.314 299.094Z" fill="#3D4E61"/>
<path d="M571.024 292.662C573.745 294.839 580.659 296.237 584.317 295.457C588.032 294.665 606.919 290.522 608.649 293.214C610.379 295.907 613.835 301.129 617.242 299.992C619.366 299.284 619.342 300.523 619.807 296.826C620.67 289.952 614.2 269.929 602.475 268.067C585.735 265.409 562.448 267.635 549.675 277.02C536.777 286.495 521.092 283.311 547.297 297.638C550.942 299.63 568.303 290.484 571.024 292.662Z" fill="#3D4E61"/>
<path d="M549.581 338.259C548.378 338.364 547.174 338.469 545.972 338.574C543.3 338.808 540.383 337.393 539.701 335.367C538.18 330.88 537.498 326.249 537.673 321.613C537.748 319.521 540.179 317.638 542.851 317.404C544.054 317.299 545.257 317.193 546.46 317.088C547.469 317 548.194 317.566 548.115 318.354C547.49 324.559 548.41 330.8 550.825 336.739C551.131 337.493 550.59 338.17 549.581 338.259Z" fill="#E6E4E1"/>
<path d="M614.209 337.231C615.419 337.245 616.628 337.258 617.838 337.272C620.524 337.302 623.274 335.672 623.732 333.602C624.754 329.019 624.926 324.355 624.243 319.752C623.939 317.674 621.312 315.983 618.625 315.953C617.416 315.939 616.206 315.926 614.996 315.912C613.982 315.9 613.322 316.52 613.487 317.298C614.79 323.43 614.558 329.714 612.804 335.812C612.581 336.586 613.195 337.22 614.209 337.231Z" fill="#E6E4E1"/>
<path d="M567.639 347.276C567.929 347.653 568.174 348.155 568.041 348.583C567.747 349.534 566.818 350.371 565.983 350.363C564.133 350.347 562.35 350.025 560.686 349.406C559.935 349.129 559.594 348.063 559.887 347.112C560.02 346.684 561.139 345.812 561.992 345.787C564.452 345.714 566.802 346.188 567.639 347.276Z" fill="#E6E4E1"/>
<path d="M566.174 349.499C554.219 349.784 544.138 339.742 543.701 327.111C543.681 326.523 544.283 326.033 545.045 326.014C545.807 325.996 546.442 326.457 546.463 327.045C546.858 338.502 555.668 347.62 566.1 347.371C566.863 347.352 567.497 347.814 567.518 348.401C567.538 348.989 566.936 349.48 566.174 349.499Z" fill="#E6E4E1"/>
<path d="M543.391 319.388C543.242 318.375 539.913 294.439 555.001 282.233C562.151 276.45 572.227 274.325 584.951 275.922C615.939 279.809 617.039 300.196 618.008 318.184L615.315 318.284C614.346 300.324 613.345 281.753 584.549 278.142C572.704 276.656 563.4 278.572 556.888 283.837C542.758 295.26 546.034 318.877 546.07 319.115L543.391 319.388Z" fill="#E6E4E1"/>
<path d="M741.058 525.392H566.752V533.996H741.058V525.392Z" fill="#515C66"/>
<path d="M743.25 527.216H568.944V535.82H743.25V527.216Z" fill="#5C6C7A"/>
<path d="M747.893 526.688H593.379L608.725 445.61H763.239L747.893 526.688Z" fill="#515C66"/>
<path d="M747.893 532.158H593.379L610.917 445.61H765.43L747.893 532.158Z" fill="#5C6C7A"/>
<path d="M1097.23 525.392H922.919V533.996H1097.23V525.392Z" fill="#515C66"/>
<path d="M1099.42 527.216H925.111V535.82H1099.42V527.216Z" fill="#5C6C7A"/>
<path d="M1104.06 526.688H949.547L964.892 445.61H1119.41L1104.06 526.688Z" fill="#515C66"/>
<path d="M1104.06 532.158H949.547L967.084 445.61H1121.6L1104.06 532.158Z" fill="#5C6C7A"/>
<path d="M295.741 350.759C297.581 348.068 302.405 348.154 305.169 346.08C308.103 343.877 307.771 339.762 305.521 337.059C303.777 334.964 299.603 334.523 297.424 332.935C297.35 332.284 297.264 331.639 297.187 331.015C296.733 327.364 305.736 326.667 303.617 320.36C302.557 317.202 299.45 315.59 296.884 313.068C291.393 307.67 303.772 305.281 295.342 295.435C291.408 290.841 284.884 293.893 281.644 289.167C277.665 283.364 280.609 282.917 278.89 277.284C276.014 267.853 265.659 277.17 260.993 270.6C260.187 269.463 260.336 268.053 259.971 266.775C258.904 263.047 252.597 261.128 248.769 263.367C246.379 264.765 244.527 267.483 241.617 267.135C240.302 266.978 239.259 266.186 238.308 265.433C235.414 263.142 233.654 258.258 229.626 258.56C226.777 258.773 224.469 260.546 222.303 262.277C221.577 262.411 220.86 262.55 220.163 262.682C215.425 263.577 213.347 255.675 205.337 258.406C201.325 259.773 199.609 262.749 196.628 265.367C190.248 270.971 183.865 261.361 173.667 269.111C168.193 273.271 172.994 278.606 167.205 282.119C160.095 286.434 159.128 283.88 151.952 286.165C141.766 289.407 149.969 295.608 147.814 300.484C147.3 300.946 146.638 301.367 145.786 301.734C144.242 302.399 142.386 302.195 140.677 302.459C135.694 303.227 132.839 308.768 135.604 312.3C135.807 312.559 136.036 312.812 136.278 313.061C136.574 313.69 136.998 314.278 137.565 314.789C138.106 315.277 138.752 315.722 139.415 316.159C140.073 316.993 140.459 317.875 140.224 318.877C139.949 320.044 138.85 320.937 137.806 321.75C134.63 324.222 128.085 325.552 128.279 329.167C128.596 335.081 140.098 338.82 136.307 343.83C134.803 345.816 131.801 348.678 131.387 351C129.842 359.671 139.616 355.554 142.664 359.73C144.899 362.791 143.848 367.646 147.664 369.305C151.109 370.803 156 368.329 159.422 368.664C159.845 368.944 160.327 369.17 160.888 369.322C161.105 369.38 161.325 369.42 161.546 369.452C161.711 369.581 161.869 369.723 162.015 369.89C163.756 371.881 161.894 374.639 162.087 377.095C162.56 383.124 173.136 383.362 180.114 381.686C177.962 387.224 185.23 393.549 191.978 392.012C194.965 391.331 197.394 389.518 200.284 388.591C206.522 386.59 214.401 389.693 216.493 394.975C217.672 391.944 218.997 388.733 221.996 386.752C224.995 384.771 232.769 390.427 233.774 391.554C235.476 393.465 239.297 393.082 241.334 391.414C243.371 389.746 242.457 386.422 244.723 384.973C251.745 380.485 263.441 391.908 263.375 379.837C263.345 374.47 270.469 381.326 279.764 376.51C282.848 374.912 282.053 372.055 284.351 369.714C286.705 367.316 291.445 368.071 294.585 366.409C297.92 364.644 298.418 360.541 296.742 357.563C296.344 356.856 295.855 356.2 295.301 355.581C295.029 353.882 294.754 352.202 295.741 350.759Z" fill="#333D47"/>
<path d="M229.056 560.722C216.108 560.722 213.251 560.722 200.303 560.722C170.461 560.722 167.177 545.166 160.94 527.452C153.537 506.426 142.98 480.541 141.761 457.085C140.878 438.786 167.84 426.98 195.257 426.98C208.205 426.98 221.153 426.98 234.101 426.98C261.519 426.98 288.48 438.786 287.598 457.085C286.378 480.541 273.323 493.851 273.013 527.452C272.843 545.78 258.897 560.722 229.056 560.722Z" fill="#C3E7F4"/>
<path d="M293.1 443C292.109 422.845 296.515 415.477 275.496 406.621C275.496 406.621 259.6 404.446 248.943 402.301C241.406 400.784 230.17 394.112 229.346 387.698L225.584 358.411H207.376L203.613 387.698C202.789 394.112 192.888 398.614 185.638 400.903C178.68 403.101 157.463 406.621 157.463 406.621C134.803 417.965 130.856 431.202 121.29 453.688L108.44 477.184L147.089 469.141L293.1 443Z" fill="#734A37"/>
<path d="M280.876 406.973L253.46 403.101C252.264 403.101 231.561 412.729 216.418 412.571C191.887 412.314 176.969 403.101 175.774 403.101L148.836 406.753C144.343 427.209 149.877 437.541 145.094 452.191C140.98 464.793 152.506 477.164 168.206 477.164H262.212C279.196 477.164 291.374 463.837 287.22 450.139C282.885 435.838 285.161 426.486 280.876 406.973Z" fill="#C3E7F4"/>
<path d="M224.069 529.524C223.785 535.18 212.509 534.699 198.595 534.216C184.68 533.734 167.948 537.931 168.232 532.273C168.516 526.616 185.515 517.066 199.43 517.548C213.345 518.031 224.353 523.867 224.069 529.524Z" fill="#734A37"/>
<path d="M303.346 426.087C303.346 426.087 382.242 522.854 343.355 532.036C298.846 542.545 248.123 529.728 222.003 533.9C203.484 536.859 219.367 523.2 219.367 523.2L312.801 512.211C312.801 512.211 283.848 472.04 277.39 448.673C270.932 425.305 303.346 426.087 303.346 426.087Z" fill="#734A37"/>
<path d="M206.741 529.524C207.024 535.18 218.301 534.699 232.215 534.216C246.13 533.734 262.861 537.931 262.578 532.273C262.294 526.616 245.295 517.066 231.38 517.548C217.465 518.031 206.457 523.867 206.741 529.524Z" fill="#734A37"/>
<path d="M127.464 426.087C127.464 426.087 48.5681 522.854 87.4552 532.036C131.964 542.545 182.688 529.728 208.807 533.9C227.326 536.859 211.443 523.2 211.443 523.2L118.01 512.211C118.01 512.211 146.963 472.04 153.421 448.673C159.878 425.305 127.464 426.087 127.464 426.087Z" fill="#734A37"/>
<path d="M270.774 405.852C270.774 405.852 301.21 397.149 344.752 483.167L303.61 503.637C303.61 503.637 242.834 439.543 270.774 405.852Z" fill="#C3E7F4"/>
<path d="M159.351 405.852C159.351 405.852 128.916 397.149 85.3737 483.167L126.515 503.637C126.515 503.637 187.292 439.543 159.351 405.852Z" fill="#C3E7F4"/>
<path d="M218.746 420.39C200.578 420.39 182.621 415.324 168.226 405.953C167.862 405.717 167.798 405.279 168.083 404.976C168.366 404.672 168.893 404.618 169.258 404.857C186.099 415.82 207.917 420.77 229.118 418.429C243.977 416.791 257.941 411.627 268.445 407.311C268.856 407.143 269.362 407.28 269.567 407.627C269.771 407.972 269.601 408.39 269.188 408.56C258.568 412.922 244.44 418.144 229.337 419.81C225.815 420.198 222.276 420.39 218.746 420.39Z" fill="#D9E0E6"/>
<path d="M212.368 428.24C207.802 428.24 203.366 427.988 199.03 427.48C181.069 425.381 165.43 418.737 154.992 408.771C154.688 408.48 154.725 408.041 155.073 407.788C155.42 407.535 155.95 407.566 156.255 407.856C166.428 417.569 181.701 424.049 199.261 426.101C214.04 427.829 230.067 426.57 248.252 422.249C262.689 418.821 274.518 414.403 284.416 408.74C284.793 408.523 285.318 408.602 285.58 408.919C285.841 409.236 285.745 409.669 285.364 409.888C275.314 415.638 263.326 420.118 248.714 423.588C235.615 426.698 223.609 428.24 212.368 428.24Z" fill="#D9E0E6"/>
<path d="M198.981 516.606C198.55 516.606 198.184 516.331 198.148 515.968C196.811 502.644 199.217 488.529 201.544 474.879C204.079 460.017 206.698 444.65 204.473 430.321C204.414 429.939 204.738 429.59 205.196 429.541C205.658 429.483 206.074 429.761 206.134 430.142C208.388 444.658 205.752 460.121 203.203 475.073C200.889 488.649 198.495 502.685 199.816 515.851C199.855 516.235 199.512 516.572 199.053 516.603C199.028 516.604 199.005 516.606 198.981 516.606Z" fill="#D9E0E6"/>
<path d="M211.251 515.863C210.869 515.863 210.526 515.647 210.435 515.326C207.323 504.264 209.019 492.408 210.516 481.946L217.791 431.08C217.847 430.697 218.296 430.424 218.72 430.471C219.18 430.516 219.508 430.862 219.453 431.244L212.178 482.11C210.626 492.963 209.02 504.185 212.066 515.007C212.171 515.383 211.891 515.757 211.442 515.846C211.377 515.858 211.313 515.863 211.251 515.863Z" fill="#D9E0E6"/>
<path d="M222.03 515.962C222.028 515.962 222.026 515.962 222.025 515.962C221.562 515.962 221.189 515.511 221.193 515.126C221.398 486.153 224.181 455.232 228.829 430.407C228.899 430.026 229.332 429.732 229.785 429.792C230.242 429.852 230.554 430.19 230.483 430.571C225.848 455.329 223.073 486.236 222.867 515.143C222.863 515.526 222.489 515.962 222.03 515.962Z" fill="#D9E0E6"/>
<path d="M188.575 355.377C195.778 355.377 201.617 351.751 201.617 347.278C201.617 342.806 195.778 339.18 188.575 339.18C181.373 339.18 175.534 342.806 175.534 347.278C175.534 351.751 181.373 355.377 188.575 355.377Z" fill="#734A37"/>
<path d="M244.856 355.377C252.058 355.377 257.897 351.751 257.897 347.278C257.897 342.806 252.058 339.18 244.856 339.18C237.653 339.18 231.814 342.806 231.814 347.278C231.814 351.751 237.653 355.377 244.856 355.377Z" fill="#734A37"/>
<path d="M217.26 378.338C236.263 378.338 248.546 365.405 248.546 349.599V323.08C248.546 307.273 236.263 300.678 217.26 300.678C217.26 300.678 184.442 297.367 185.974 323.08V349.599C185.974 365.405 198.256 378.338 217.26 378.338Z" fill="#734A37"/>
<path d="M191.457 338.872C192.28 336.76 192.111 333.595 193.006 331.503C193.902 329.411 195.167 327.541 197.834 327.451C198.758 327.42 199.704 327.598 200.598 327.4C201.78 327.137 202.61 326.28 203.353 325.472C205.682 322.943 206.569 318.443 210.339 317.886C212.882 317.511 214.774 320.214 217.32 320.575C219.866 320.937 222.803 320.279 224.152 318.448C225.521 316.589 226.075 313.329 228.651 313.731C229.537 313.869 230.182 314.48 230.894 314.942C232.615 316.059 235.061 316.349 237.089 315.676C238.646 315.802 239.048 317.568 238.722 318.84C238.395 320.113 238.288 323.14 239.285 324.143C240.659 325.525 243.468 326.138 244.685 327.619C248.08 331.754 242.49 337.955 250.778 339.545C264.313 342.142 258.715 322.197 258.592 317.724C258.521 315.143 256.663 312.863 254.874 310.753C253.875 309.573 252.797 308.339 251.208 307.761C249.986 307.317 248.598 307.315 247.326 306.983C245.085 306.401 243.423 304.878 241.687 303.563C235.525 298.9 227.487 296.416 219.663 294.038C217.436 293.361 215.092 292.673 212.747 292.964C210.885 293.194 209.222 294.02 207.49 294.631C200.585 297.068 192.109 296.25 186.11 299.997C180.455 303.53 178.895 309.918 177.744 315.723C176.951 319.724 176.6 323.803 175.364 327.725C170.353 343.63 188.11 347.452 191.457 338.872Z" fill="#333D47"/>
<path d="M181.647 353.824C180.467 353.927 179.288 354.031 178.109 354.134C175.491 354.363 172.633 352.975 171.963 350.99C170.474 346.593 169.805 342.054 169.976 337.512C170.05 335.461 172.432 333.616 175.051 333.386C176.23 333.283 177.409 333.18 178.588 333.077C179.576 332.99 180.287 333.545 180.209 334.317C179.597 340.398 180.498 346.514 182.866 352.335C183.166 353.074 182.635 353.737 181.647 353.824Z" fill="#E6E4E1"/>
<path d="M250.56 353.824C251.739 353.927 252.918 354.031 254.097 354.134C256.716 354.363 259.574 352.975 260.243 350.99C261.733 346.593 262.401 342.054 262.23 337.512C262.156 335.461 259.774 333.616 257.156 333.386C255.976 333.283 254.798 333.18 253.618 333.077C252.63 332.99 251.919 333.545 251.997 334.317C252.609 340.398 251.708 346.514 249.341 352.335C249.041 353.074 249.571 353.737 250.56 353.824Z" fill="#E6E4E1"/>
<path d="M201.017 365.446C201.302 365.816 201.541 366.308 201.412 366.728C201.124 367.66 200.213 368.48 199.395 368.471C197.582 368.456 195.834 368.141 194.204 367.534C193.468 367.262 193.133 366.218 193.421 365.286C193.551 364.867 194.648 364.012 195.484 363.987C197.894 363.916 200.198 364.38 201.017 365.446Z" fill="#E6E4E1"/>
<path d="M199.582 367.625C187.866 367.905 177.987 358.063 177.558 345.685C177.539 345.109 178.129 344.628 178.875 344.61C179.622 344.592 180.245 345.044 180.265 345.62C180.653 356.848 189.286 365.784 199.51 365.539C200.257 365.522 200.879 365.973 200.898 366.549C200.918 367.126 200.329 367.606 199.582 367.625Z" fill="#E6E4E1"/>
<path d="M178.213 338.036L175.572 337.93C175.595 337.53 178.314 298.283 216.729 298.283C217.089 298.283 217.451 298.286 217.817 298.293C242.561 298.762 255.77 311.295 257.077 335.544L254.436 335.643C253.185 312.434 241.186 300.936 217.756 300.492C180.826 299.811 178.235 337.652 178.213 338.036Z" fill="#E6E4E1"/>
<path d="M370.578 525.392H196.271V533.996H370.578V525.392Z" fill="#515C66"/>
<path d="M372.769 527.216H198.463V535.82H372.769V527.216Z" fill="#5C6C7A"/>
<path d="M377.412 526.688H222.899L238.244 445.61H392.757L377.412 526.688Z" fill="#515C66"/>
<path d="M377.412 532.158H222.899L240.436 445.61H394.949L377.412 532.158Z" fill="#5C6C7A"/>
<path d="M1130 534.63H0V553.207H1130V534.63Z" fill="#678594"/>
<path d="M1130 542.814H0V600H1130V542.814Z" fill="#89BCC4"/>
</svg>
