<svg width="16" height="16" viewBox="0 0 16 16" fill="none" xmlns="http://www.w3.org/2000/svg">
<path d="M9.79825 8.2718L15.5325 2.53658C15.9358 2.1332 15.9358 1.47642 15.5325 1.07304C15.1292 0.669663 14.4725 0.669663 14.0692 1.07304L8.33496 6.80826L2.60073 1.07304C2.19742 0.669663 1.54075 0.669663 1.13744 1.07304C0.734134 1.47642 0.734134 2.1332 1.13744 2.53658L6.87167 8.2718L1.14261 14.0018C0.739304 14.4052 0.739304 15.062 1.14261 15.4654C1.34427 15.6671 1.60797 15.7705 1.87167 15.7705C2.13537 15.7705 2.39908 15.6671 2.60073 15.4654L8.33496 9.73017L14.0692 15.4654C14.2708 15.6671 14.5345 15.7705 14.7982 15.7705C15.062 15.7705 15.3257 15.6671 15.5273 15.4654C15.9306 15.062 15.9306 14.4052 15.5273 14.0018L9.79825 8.2718Z" fill="white"/>
</svg>
